<svg width="130" height="71" viewBox="0 0 130 71" fill="none" xmlns="http://www.w3.org/2000/svg">
<path d="M90.8707 0.0150146C92.8606 3.66727 94.7029 7.31968 96.5463 10.9716C96.7772 11.4292 97.016 11.8828 97.2462 12.3408C97.6847 13.2128 97.7448 14.1715 96.7111 14.4538C96.1924 14.5955 95.1527 14.0957 94.8614 13.5904C93.412 11.0763 92.1297 8.46565 90.7957 5.88529C90.2463 4.82243 89.6066 3.78822 89.2137 2.66876C88.9569 1.93683 89.0697 1.07516 88.9871 0.143311C89.546 0.0150157 90.1348 0.0150157 90.8707 0.0150146Z" fill="#E7805A"/>
<path d="M82.004 36.8755C82.9156 28.097 87.8768 22.3222 95.6631 18.7876C100.4 16.6375 105.27 14.7838 110.047 12.7192C111.176 12.231 112.007 12.3093 113.027 13.0034C118.275 16.5765 123.559 20.097 128.868 23.5781C129.805 24.1919 130.169 24.7378 129.928 25.927C128.634 32.3124 127.47 38.7239 126.193 45.1127C126.07 45.7305 125.604 46.5505 125.081 46.7761C119.673 49.1085 114.306 51.5823 108.76 53.5375C100.928 56.2979 93.5504 55.3254 87.0907 49.7162C86.9265 49.5736 86.6896 49.5149 86.3413 49.2748C83.5492 45.4742 81.8332 41.4975 82.004 36.8755ZM87.3495 30.2205C86.7412 32.2871 85.7628 34.3229 85.5881 36.4254C84.7856 46.0815 93.3839 52.4887 102.661 51.7306C108.375 51.2638 113.264 48.3522 118.402 46.1968C118.454 46.1747 118.439 45.9922 118.468 45.8074C118.277 45.6572 118.068 45.469 117.837 45.3147C109.525 39.77 101.221 34.2134 92.8924 28.694C89.4883 26.438 89.4638 26.475 87.3495 30.2205ZM122.075 44.0549C123.651 44.6088 123.123 43.1478 123.226 42.6581C124.276 37.6252 125.185 32.5627 126.226 27.5275C126.446 26.4581 126.242 25.8474 125.329 25.2581C122.063 23.1492 118.843 20.9685 115.602 18.82C114.147 17.8548 112.683 16.9015 111.14 15.8883C110.904 16.3618 110.719 16.5955 110.668 16.8553C109.624 22.2391 108.614 27.6297 107.546 33.0089C107.34 34.0466 107.777 34.5752 108.572 35.0991C113.011 38.0251 117.426 40.988 122.075 44.0549ZM99.356 20.5469C97.0786 21.6443 94.8012 22.7417 92.0637 24.0608C96.4332 26.9748 100.246 29.5172 104.282 32.209C104.805 29.5161 105.26 27.1729 105.715 24.8295C106.178 22.4435 106.641 20.0574 107.174 17.3089C104.419 18.4467 102.006 19.4431 99.356 20.5469Z" fill="#E87E55"/>
<path d="M38.4531 21.6164C43.0727 20.8968 47.3658 21.7864 51.5933 23.1114C51.981 23.2329 52.5248 23.9345 52.4603 24.2608C51.3246 30.0091 49.4617 35.4446 44.9352 39.5004C40.5508 43.4288 35.217 43.7557 29.7442 43.0971C27.6598 42.8463 25.6116 42.2182 23.585 41.6304C23.1831 41.5139 22.629 40.7375 22.6963 40.365C23.7097 34.753 25.6598 29.5569 29.8777 25.495C32.2215 23.2379 35.0826 22.0213 38.4531 21.6164Z" fill="#9C9A4F"/>
<path d="M81.8833 36.9088C81.8333 41.4975 83.5493 45.4742 86.2226 49.2444C83.4197 49.9877 83.0857 47.6094 82.2647 45.8807C78.7755 46.9892 75.4516 48.206 72.0433 49.1015C53.0439 54.0939 34.31 53.7131 16.2329 45.4535C11.0235 43.0733 6.29033 39.6508 1.34026 36.7037C1.24322 36.6459 1.16749 36.5536 1.0754 36.4861C0.140245 35.8011 -0.401497 34.9545 0.3627 33.8682C1.16562 32.7269 2.09325 33.1489 3.03391 33.7918C5.58035 35.5321 8.07669 37.3626 10.7263 38.9321C19.7576 44.2818 29.5196 47.4629 39.9736 48.5241C53.4694 49.894 66.5321 48.0427 79.2178 43.3273C79.8011 43.1104 80.3621 42.8337 81.0102 42.5515C80.8877 40.6048 78.941 38.4031 81.8833 36.9088Z" fill="#9E9C56"/>
<path d="M40.6412 68.2664C35.9796 64.3761 35.4702 59.1902 35.4536 53.8001C48.0412 51.7784 54.8824 58.5649 53.8462 70.6932C49.2208 71.3773 44.7912 70.97 40.6412 68.2664Z" fill="#9C9A50"/>
<path d="M100.421 7.39903C100.946 8.42654 101.556 9.30348 101.816 10.274C101.966 10.8346 101.553 11.5462 101.393 12.1899C100.748 11.9956 99.7623 11.9998 99.5133 11.5737C98.2223 9.36473 97.0605 7.07249 96.0062 4.74032C95.8202 4.32901 96.2043 3.29058 96.6032 3.08724C97.0096 2.88009 98.0293 3.15653 98.3073 3.55299C99.1177 4.70906 99.6918 6.03087 100.421 7.39903Z" fill="#E7835E"/>
<path d="M119.459 31.0426C119.467 32.0461 119.669 33.5646 119.354 33.681C118.058 34.1594 117.9 32.8142 117.519 31.994C116.966 30.805 116.403 29.603 116.047 28.3491C115.883 27.7752 116.201 27.0644 116.301 26.4156C116.869 26.8129 117.632 27.0913 117.962 27.6332C118.579 28.6456 118.945 29.8111 119.459 31.0426Z" fill="#E7835E"/>
</svg>
